<svg xmlns="http://www.w3.org/2000/svg" width="611.997" height="611.998"><path d="M601.444 535.668L433.671 368.273c1.504-2.26 2.639-6.032 3.765-10.931 17.719-29.784 28.682-62.206 32.052-96.518.772-7.915 1.126-16.215 1.126-24.129 0-26.012-4.343-52.088-13.19-77.666-11.51-33.243-30.098-62.648-55.426-88.226-90.422-91.306-242.656-91.097-332.909 0-30.018 30.307-50.391 65.633-61.08 105.945-10.802 40.755-10.553 80.682 0 121.026 10.561 40.344 30.652 75.67 61.08 105.944 45.355 45.131 104.811 68.617 166.269 68.617 47.125 0 89.964-13.625 129.688-38.455l6.033-3.772L539.608 598.26c6.418 6.403 13.199 10.184 19.609 10.932 1.504.378 2.638.45 3.764.378 4.537-.298 8.695-1.464 12.065-3.395 4.552-2.598 9.427-6.41 14.711-11.687l7.536-7.545c5.276-5.276 9.089-10.158 11.688-14.703 1.93-3.37 3.016-7.914 3.016-13.577v-3.016c0-6.409-3.949-13.383-10.553-19.979zm-179.09-248.454c-8.848 33.129-25.634 62.206-50.52 87.091-36.194 36.194-84.832 56.552-136.478 56.552-50.897 0-99.221-20.687-136.863-56.552-73.957-70.458-73.651-202.189 0-273.34 37.2-35.929 85.588-56.93 136.863-56.93 53.914 0 98.892 19.111 136.478 56.93 24.62 24.773 41.849 53.536 50.52 86.714 8.67 33.178 8.872 66.309 0 99.535z"/></svg>